<?xml version="1.0" standalone="no"?>
<!DOCTYPE svg PUBLIC "-//W3C//DTD SVG 20010904//EN"
 "http://www.w3.org/TR/2001/REC-SVG-20010904/DTD/svg10.dtd">
<svg version="1.0" xmlns="http://www.w3.org/2000/svg"
 width="500.000000pt" height="500.000000pt" viewBox="0 0 500.000000 500.000000"
 preserveAspectRatio="xMidYMid meet">

<g transform="translate(0.000000,500.000000) scale(0.100000,-0.100000)"
fill="#000000" stroke="none">
<path d="M1075 4985 c-490 -77 -894 -430 -1025 -898 -50 -176 -50 -171 -50
-1587 0 -1416 0 -1411 50 -1587 114 -408 455 -749 863 -863 176 -50 171 -50
1587 -50 1416 0 1411 0 1587 50 408 114 749 455 863 863 50 176 50 171 50
1587 0 1416 0 1411 -50 1587 -114 408 -455 749 -863 863 -177 50 -169 50
-1597 49 -1019 -1 -1354 -4 -1415 -14z m3012 -1107 l503 -503 -497 -497 c-274
-274 -502 -498 -508 -498 -13 0 -215 202 -215 215 0 5 136 146 302 312 l303
303 -1688 0 -1687 0 0 165 0 165 1687 0 1688 0 -310 310 -310 310 110 110 c60
60 112 110 115 110 3 0 231 -226 507 -502z m-2552 -1368 l110 -110 -310 -310
-310 -310 1688 0 1687 0 0 -160 0 -160 -1687 0 -1688 0 303 -303 c166 -166
302 -307 302 -312 0 -6 -50 -60 -110 -120 l-110 -110 -503 503 -502 502 500
500 c275 275 505 500 510 500 6 0 60 -50 120 -110z"/>
</g>
</svg>
